<svg xmlns="http://www.w3.org/2000/svg" width="271.69" height="233.335" viewBox="0 0 271.69 233.335">
  <g id="_ae285dff" data-name="#ae285dff" transform="translate(-6.34 -10.47)">
    <path id="path5" d="M142.27,10.47c13.86,23.81,27.84,47.55,41.55,71.45-22.16,39.09-44,78.37-66.91,117.03-8.79,14.84-17.34,29.82-26.03,44.71-28.18.17-56.36.16-84.54.12.86-1.93,1.71-3.87,2.75-5.71Q75.645,124.25,142.27,10.47Z" fill="#ae285d"/>
    <path id="path23" d="M142.28,155.63c28.28-.01,56.56-.21,84.84.26,16.84,29.36,34.22,58.4,50.91,87.84-28.28.14-56.55.03-84.83.01C176.37,214.28,158.79,185.27,142.28,155.63Z" fill="#ae285d"/>
  </g>
</svg>
