<svg xmlns="http://www.w3.org/2000/svg" width="61.6" height="51.497" viewBox="0 0 61.6 51.497">
  <path id="credit-cards" d="M59.6,17.9V11.7a5.167,5.167,0,0,0-2-4.2A5.839,5.839,0,0,0,53,6.4L7.8,17.3H7a5.8,5.8,0,0,0-5.8,5.8V52A5.8,5.8,0,0,0,7,57.8H57A5.8,5.8,0,0,0,62.8,52V23A5.8,5.8,0,0,0,59.6,17.9Zm-5.9-8A1.921,1.921,0,0,1,56,11.8v5.5H22.8ZM7,20.8H57a2.326,2.326,0,0,1,2.3,2.3v4.8H4.8V23A2.22,2.22,0,0,1,7,20.8ZM59.3,31.3v5.8H4.8V31.3ZM57,54.2H7a2.326,2.326,0,0,1-2.3-2.3V40.6H59.2V51.9A2.182,2.182,0,0,1,57,54.2Z" transform="translate(-1.2 -6.303)" fill="#673aff"/>
</svg>
