<svg xmlns="http://www.w3.org/2000/svg" width="50" height="48.635" viewBox="0 0 50 48.635">
  <g id="download" transform="translate(-25 -26)">
    <g id="Group_48" data-name="Group 48">
      <path id="Path_80" data-name="Path 80" d="M58.333,74.577a1,1,0,0,1-.666-1.886,23,23,0,1,0-15.334,0,1,1,0,0,1-.666,1.886,25,25,0,1,1,16.666,0Zm-7.65-35.885L62.689,50.773a1,1,0,1,1-1.413,1.414L51.705,42.6c-.388-.388-.706-.264-.706.284V67.011a1,1,0,0,1-2,0V42.886c0-.538-.316-.675-.706-.284l-9.571,9.585a1,1,0,1,1-1.413-1.414L49.283,38.692A.985.985,0,0,1,50.683,38.692Z" fill="#673aff" fill-rule="evenodd"/>
    </g>
  </g>
</svg>
