<svg id="Group_46" data-name="Group 46" xmlns="http://www.w3.org/2000/svg" width="111.647" height="36.221" viewBox="0 0 111.647 36.221">
  <path id="Path_67" data-name="Path 67" d="M48.4,35.617H39.29L44.984.625h9.111ZM31.626.625,22.941,24.693,21.913,19.51v0L18.848,3.776S18.478.625,14.527.625H.168L0,1.218a34.081,34.081,0,0,1,9.53,4l7.915,30.4h9.492L41.431.625Zm71.656,34.992h8.365L104.354.624H97.031a4.186,4.186,0,0,0-4.205,2.608L79.238,35.617h9.5l1.9-5.2h11.581l1.067,5.2ZM93.258,23.239l4.787-13.095,2.693,13.095ZM79.95,9.04l1.3-7.514A26.3,26.3,0,0,0,73.057,0C68.536,0,57.8,1.976,57.8,11.584c0,9.04,12.6,9.152,12.6,13.9s-11.3,3.9-15.032.9l-1.354,7.857A25.53,25.53,0,0,0,64.3,36.221c6.217,0,15.6-3.219,15.6-11.98,0-9.1-12.714-9.945-12.714-13.9s8.873-3.448,12.772-1.3Z" transform="translate(0 0)" fill="#fff"/>
</svg>
