<svg xmlns="http://www.w3.org/2000/svg" width="55.586" height="60.198" viewBox="0 0 55.586 60.198">
  <g id="layer1" transform="translate(-122.238 -47.477)">
    <g id="g651" transform="translate(122.238 47.477)">
      <path id="path160" d="M133.361,58.164c13.746-13.645,30.422-17.186,37.1-7.886s.808,28.1-12.938,41.743c-13.746,13.746-30.422,17.282-37.2,7.881-6.567-9.4-.7-28.1,13.039-41.739" transform="translate(-117.629 -45.088)" fill="#f06321"/>
      <path id="path162" d="M137.55,50.866A50.238,50.238,0,0,0,133,54.71c-12.029,11.922-17.085,28.3-11.119,36.485,6.163,8.184,20.92,5.153,33.251-6.876,6.674-6.466,11.119-13.948,12.938-20.92.505-5.153-.2-9.7-2.526-13.14-5.254-7.275-16.575-6.674-28,.606" transform="translate(-112.723 -45.069)" fill="#ae282e"/>
      <path id="path164" d="M150.923,49.014v.3a9.335,9.335,0,0,1-2.93,5.658c-2.728,2.627-6.365,3.637-7.886,2.127-1.718-1.617-.7-5.158,2.026-7.987,2.829-2.728,6.466-3.637,7.982-2.021a2.587,2.587,0,0,1,.808,1.92M140.415,95.405c-6.471,4.85-13.14,7.28-19.611,6.269,2.728.1,4.956-2.935,6.775-6.977a69.728,69.728,0,0,0,3.738-11.624c1.313-5.759,1.415-9.8.707-10.71-1.111-1.42-3.536-1.111-6.37.505-1.414.808-3.233.3-1.106-2.324,2.223-2.627,10.811-8.9,13.842-9.907,3.44-.909,7.28.4,5.966,4.143-.914,2.728-12.837,33.858-3.94,30.624" transform="translate(-108.712 -41.702)" fill="#fff"/>
    </g>
  </g>
</svg>
