<svg xmlns="http://www.w3.org/2000/svg" width="110.782" height="68.856" viewBox="0 0 110.782 68.856">
  <g id="mastercardlogo" transform="translate(0.5 0.501)">
    <path id="Path_71" data-name="Path 71" d="M1931.709,978.537V977.22h-.343l-.4.9-.395-.9h-.344v1.317h.244v-.992l.371.856h.252l.371-.858v.995h.242Zm-2.176,0v-1.092h.439v-.222h-1.122v.222h.439v1.092h.241Z" transform="translate(-1822.986 -923.586)" fill="#f79410" stroke="#707070" stroke-width="1"/>
    <path id="Path_72" data-name="Path 72" d="M759.395,185.5H729.71V132.15H759.4Z" transform="translate(-689.66 -124.898)" fill="#ff5f00" stroke="#707070" stroke-width="1"/>
    <path id="Path_73" data-name="Path 73" d="M41.932,33.927A33.872,33.872,0,0,1,54.889,7.253a33.928,33.928,0,1,0,0,53.348A33.872,33.872,0,0,1,41.932,33.927" transform="translate(0 0)" fill="#eb001b" stroke="#707070" stroke-width="1"/>
    <path id="Path_74" data-name="Path 74" d="M1055,33.927A33.926,33.926,0,0,1,1000.11,60.6a33.931,33.931,0,0,0,0-53.348A33.926,33.926,0,0,1,1055,33.927" transform="translate(-945.22 0)" fill="#f79e1b" stroke="#707070" stroke-width="1"/>
  </g>
</svg>
