<svg xmlns="http://www.w3.org/2000/svg" width="84.4" height="31.506" viewBox="0 0 84.4 31.506">
  <g id="upi-payment" transform="translate(-0.001)">
    <path id="Path_81" data-name="Path 81" d="M111.685.06,117.4,11.427,105.38,22.8l1.429-5.158,6.573-6.216-3.125-6.216Z" transform="translate(-32.999 -0.019)" fill="#0e8635" fill-rule="evenodd"/>
    <path id="Path_82" data-name="Path 82" d="M105.832.06l5.715,11.367L99.52,22.8Z" transform="translate(-31.164 -0.019)" fill="#e97208" fill-rule="evenodd"/>
    <path id="Path_83" data-name="Path 83" d="M.88,27.1h.666L.928,29.672a1.1,1.1,0,0,0,.055.865.783.783,0,0,0,.707.288,1.218,1.218,0,0,0,.838-.288A1.637,1.637,0,0,0,3,29.672L3.613,27.1h.673l-.639,2.644a2.3,2.3,0,0,1-.735,1.291,2.1,2.1,0,0,1-1.381.426,1.394,1.394,0,0,1-1.175-.426,1.535,1.535,0,0,1-.11-1.291L.88,27.1Zm63.713-4.41h-4.52L66.357,0h4.52L64.592,22.687ZM27.021,21.265a2.087,2.087,0,0,1-2,1.525H1.718A1.644,1.644,0,0,1,.3,22.144,1.784,1.784,0,0,1,.1,20.537L5.784.062H10.3L5.234,18.353H23.319L28.395.062h4.519l-5.893,21.2ZM62.25.714A1.663,1.663,0,0,0,60.8.069H35.957L34.735,4.519h22.6L56.013,9.266H37.928V9.252h-4.52L29.659,22.8h4.52l2.514-9.087H57.009a2.861,2.861,0,0,0,1.793-.646,2.993,2.993,0,0,0,1.1-1.607L62.415,2.37A1.806,1.806,0,0,0,62.25.714ZM80.912,31.341,81.928,27.1h2.308l-.137.584H82.464l-.254,1.065h1.635l-.144.6H82.066l-.33,1.374h1.635l-.144.618Zm-.069-3.214a1.493,1.493,0,0,0-.515-.371,1.605,1.605,0,0,0-.639-.124,1.829,1.829,0,0,0-1.209.446,2.072,2.072,0,0,0-.7,1.161,1.357,1.357,0,0,0,.144,1.133,1.067,1.067,0,0,0,.941.446,2.072,2.072,0,0,0,.728-.137,3.144,3.144,0,0,0,.735-.405l-.185.783a2.56,2.56,0,0,1-.659.3,2.717,2.717,0,0,1-.714.1,2.12,2.12,0,0,1-.838-.158,1.478,1.478,0,0,1-.6-.467,1.55,1.55,0,0,1-.3-.714,2.271,2.271,0,0,1,.048-.879,3,3,0,0,1,.371-.879,2.933,2.933,0,0,1,.646-.721,2.982,2.982,0,0,1,.817-.474,2.509,2.509,0,0,1,.9-.158,1.884,1.884,0,0,1,.666.11,1.954,1.954,0,0,1,.563.33l-.206.687Zm-5.09,3.214-.206-1.092H73.906l-.742,1.092h-.707l3.063-4.416.948,4.416Zm-1.463-1.669h1.154l-.192-.968c-.007-.062-.021-.131-.027-.213s-.014-.172-.014-.268c-.048.089-.089.179-.137.261s-.089.151-.131.22l-.653.968Zm-4.1,1.669L71.207,27.1h2.308l-.137.584H71.742l-.254,1.058h1.635l-.144.6H71.344l-.481,2Zm-2.164-1.9-.453,1.9h-.632L67.958,27.1H68.9a2.818,2.818,0,0,1,.625.055.666.666,0,0,1,.343.185.711.711,0,0,1,.2.4,1.428,1.428,0,0,1-.021.536,1.544,1.544,0,0,1-.433.8,1.345,1.345,0,0,1-.79.343l.962,1.93h-.762l-.92-1.9h-.076ZM68.2,28.9h.124a1.466,1.466,0,0,0,.742-.131.662.662,0,0,0,.282-.453c.055-.234.034-.4-.069-.495a1.029,1.029,0,0,0-.659-.144h-.124L68.2,28.9Zm-4.334,2.438L64.881,27.1h2.308l-.137.584H65.416l-.254,1.065H66.8l-.144.6H65.018l-.33,1.374h1.635l-.151.618Zm-.735-3.661-.879,3.661h-.673l.879-3.661h-1.1l.137-.584h2.864l-.137.584H63.129Zm-6.862,3.661,1.058-4.416,2.006,2.6a2.781,2.781,0,0,1,.158.234c.055.082.11.179.165.282l.707-2.947h.625L59.928,31.5l-2.054-2.644a1.856,1.856,0,0,1-.151-.227c-.048-.082-.089-.165-.131-.247l-.707,2.953h-.618Zm-1.642,0L55.642,27.1h.673L55.3,31.341Zm-4.973-.852.6-.254a.552.552,0,0,0,.179.433.726.726,0,0,0,.488.151.791.791,0,0,0,.515-.172.831.831,0,0,0,.288-.46c.062-.247-.089-.474-.446-.666-.048-.027-.089-.048-.117-.062a2.037,2.037,0,0,1-.762-.618.869.869,0,0,1-.062-.68,1.44,1.44,0,0,1,.543-.838A1.571,1.571,0,0,1,51.851,27a1.3,1.3,0,0,1,.721.179.7.7,0,0,1,.3.522l-.591.282a.65.65,0,0,0-.206-.3.52.52,0,0,0-.316-.089.77.77,0,0,0-.467.144.668.668,0,0,0-.254.392c-.062.254.117.495.529.714.034.021.055.027.076.041a1.766,1.766,0,0,1,.707.57.9.9,0,0,1,.062.694,1.679,1.679,0,0,1-.6.962,1.732,1.732,0,0,1-1.085.357,1.16,1.16,0,0,1-.8-.247.974.974,0,0,1-.275-.735Zm-.7-2.809-.872,3.661h-.673l.879-3.661h-1.1l.144-.584H50.2l-.137.584H48.952Zm-6.862,3.661,1.058-4.416,2.006,2.6a2.781,2.781,0,0,1,.158.234c.055.082.11.179.165.282l.707-2.947h.625L45.752,31.5,43.7,28.855a1.856,1.856,0,0,1-.151-.227c-.048-.082-.089-.165-.131-.247l-.707,2.953h-.618Zm-3.084,0L40.023,27.1h2.308l-.137.584H40.559L40.3,28.745H41.94l-.144.6H40.161l-.33,1.374h1.635l-.151.618Zm-1.12-2.095a2.567,2.567,0,0,1,.027-.275c.014-.124.027-.227.034-.309a2.825,2.825,0,0,1-.144.288c-.055.1-.117.192-.185.3l-1.628,2.26L35.463,29.2a2.1,2.1,0,0,1-.048-.275,1.739,1.739,0,0,1-.021-.261c-.021.089-.055.179-.089.282a2.748,2.748,0,0,1-.131.309l-.948,2.088h-.618l2.04-4.43.577,2.679c.007.041.021.117.034.213s.034.22.055.364c.069-.124.165-.275.3-.467a1.033,1.033,0,0,0,.076-.117L38.519,26.9l-.062,4.43h-.611l.041-2.088Zm-6.415,2.095.467-1.944-.845-2.3H31.8l.522,1.442a1.313,1.313,0,0,1,.041.144c.014.062.034.124.048.192.041-.069.089-.131.131-.192a1.727,1.727,0,0,1,.131-.165L33.9,27.1h.673L32.6,29.4l-.467,1.944h-.659Zm-1.676,0-.206-1.092H27.948l-.742,1.092H26.5l3.063-4.416.948,4.416Zm-1.463-1.669h1.154l-.192-.968c-.007-.062-.021-.131-.027-.213s-.014-.172-.014-.268c-.041.089-.089.179-.137.261s-.089.151-.131.22l-.653.968Zm-2.947-.234-.453,1.909H24.3L25.318,27.1h1.017a2.94,2.94,0,0,1,.653.048.785.785,0,0,1,.33.165.7.7,0,0,1,.206.4,1.255,1.255,0,0,1-.021.549,1.823,1.823,0,0,1-.24.556,1.253,1.253,0,0,1-.81.563,3.366,3.366,0,0,1-.68.048h-.385Zm.172-.57h.172a1.712,1.712,0,0,0,.776-.124.66.66,0,0,0,.3-.44.456.456,0,0,0-.082-.481,1.16,1.16,0,0,0-.7-.137h-.172l-.288,1.181Zm-7.294,2.473L19.28,27.1h.907a5.426,5.426,0,0,1,1.223.089,1.224,1.224,0,0,1,.556.309,1.3,1.3,0,0,1,.371.721,2.458,2.458,0,0,1-.055,1.01,3.072,3.072,0,0,1-.426,1,2.644,2.644,0,0,1-.714.721,2.171,2.171,0,0,1-.694.309,4.887,4.887,0,0,1-1.1.089H18.264Zm.824-.625h.563a3.145,3.145,0,0,0,.714-.062,1.475,1.475,0,0,0,.46-.213,1.7,1.7,0,0,0,.474-.515,2.226,2.226,0,0,0,.288-.714,2.035,2.035,0,0,0,.055-.714.933.933,0,0,0-.227-.515.737.737,0,0,0-.371-.213,3.2,3.2,0,0,0-.749-.062h-.488l-.721,3.008Zm-3.908.625L16.2,27.1H18.5l-.137.584H16.732l-.254,1.065h1.635l-.144.6H16.334L16,30.723h1.635l-.151.618Zm-1.642,0L14.555,27.1h.673l-1.017,4.245Zm-3.05,0L11.505,27.1h2.308l-.137.584H12.041l-.254,1.058h1.635l-.144.6H11.643l-.481,2Zm-1.635,0L9.87,27.1h.673L9.527,31.341Zm-4.664,0,1.058-4.416,2.006,2.6a2.78,2.78,0,0,1,.158.234c.055.082.11.179.165.282l.707-2.947h.625L7.851,31.5,5.8,28.855a1.856,1.856,0,0,1-.151-.227c-.048-.082-.089-.165-.131-.247l-.714,2.96Z" transform="translate(0)" fill="#66686c"/>
  </g>
</svg>
