<svg xmlns="http://www.w3.org/2000/svg" width="62" height="36.3" viewBox="0 0 62 36.3">
  <g id="visa" transform="translate(-1 -13.8)">
    <g id="Group_47" data-name="Group 47">
      <path id="Path_75" data-name="Path 75" d="M28.8,39.6l2.4-15.2H27.3L24.8,39.6Z" fill="#979595"/>
      <path id="Path_76" data-name="Path 76" d="M42.4,34.6c0-1.7-1-3-3.3-4.2-1.4-.7-2.2-1.2-2.2-1.9,0-.6.7-1.3,2.3-1.3a7.941,7.941,0,0,1,3,.6l.4.1.5-3.2a10.049,10.049,0,0,0-3.5-.6c-3.9,0-6.7,2-6.7,5,0,2.2,1.9,3.5,3.5,4.2,1.5.7,2.1,1.2,2.1,1.9,0,1-1.2,1.5-2.4,1.5a7.86,7.86,0,0,1-3.8-.8l-.5-.2-.6,3.5a14.738,14.738,0,0,0,4.3.7C39.7,39.9,42.4,37.8,42.4,34.6Z" fill="#979595"/>
      <path id="Path_77" data-name="Path 77" d="M46.2,39.6a14.918,14.918,0,0,1,.9-2.3h5c.1.5.5,2.3.5,2.3h3.7L53.1,24.4h-3A2.034,2.034,0,0,0,48,25.7L42.1,39.6Zm3.5-9.5a6.244,6.244,0,0,0,.5-1.4l.3,1.3s.8,3.7.9,4.4H48.1C48.5,33.4,49.7,30.1,49.7,30.1Z" fill="#979595"/>
      <path id="Path_78" data-name="Path 78" d="M15.3,39.6h4.1l6.4-15.2H21.6L17.7,34.9,15.6,24.4H7.7l4.4,3.3Z" fill="#979595"/>
    </g>
    <path id="Path_79" data-name="Path 79" d="M57,17.3a2.476,2.476,0,0,1,2.5,2.5V44.1A2.476,2.476,0,0,1,57,46.6H7a2.476,2.476,0,0,1-2.5-2.5V19.8A2.476,2.476,0,0,1,7,17.3H57m0-3.5H7a6.018,6.018,0,0,0-6,6V44.1a6.018,6.018,0,0,0,6,6H57a6.018,6.018,0,0,0,6-6V19.8a6.018,6.018,0,0,0-6-6Z" fill="#979595"/>
  </g>
</svg>
