<svg xmlns="http://www.w3.org/2000/svg" width="166.166" height="193.159" viewBox="0 0 166.166 193.159">
  <g id="g2998" transform="translate(-138.815 -6.04)">
    <g id="gffffffff" transform="translate(138.815 75.15)">
      <path id="path5" d="M509.47,95.14a7.2,7.2,0,0,1,2.8,2.187c11.5,12.1,23.068,24.115,34.54,36.23.023-12.123-.031-24.247.023-36.37,3.11-.008,6.213.047,9.323-.054a11.57,11.57,0,0,1,.388,3.343c-.062,18.437.023,36.874-.039,55.311-.233.109-.69.318-.915.427-12.356-12.565-24.316-25.527-36.649-38.107-.116,12.085.14,24.185-.124,36.277-3.134-.14-6.267-.07-9.393-.054.008-19.732-.078-39.465.047-59.19Z" transform="translate(-391.152 -95.14)" fill="#fff"/>
      <path id="path7" d="M188.848,96.679c7.237-2.637,15.024-.745,22.075,1.528.085,4.491.039,8.974.039,13.465-4.328-2.637-9.013-5.274-14.2-5.422-2.622-.171-5.841,1.435-5.887,4.375-.178,2.149,1.536,3.793,3.165,4.894,6.283,3.933,13.589,6.7,18.422,12.565,5.879,8.051,2.761,20.919-6.128,25.449-8.2,4.351-17.964,2.575-26.419-.054-.489-5.057-.807-10.122-1.008-15.195,4.894,3.056,10.316,5.91,16.242,5.81,2.521-.171,5.492-.939,6.733-3.382,1.3-2.2.31-5.1-1.621-6.57-5.538-4.429-12.705-6.585-17.576-11.875a16.048,16.048,0,0,1-4.313-12.511c.326-6.011,4.856-11.231,10.479-13.077Z" transform="translate(-178.297 -95.198)" fill="#fff"/>
    </g>
    <g id="gc4261bff" transform="translate(138.514 6.04)">
      <rect id="Rectangle_36" data-name="Rectangle 36" width="166" height="115" transform="translate(0.468 42.159)" fill="#005192"/>
      <path id="path20" d="M333.8,17.015c2.777-3.646,5.329-7.477,8.307-10.975Q298.5,83.108,255.161,160.347c-7.229,12.969-14.636,25.845-21.788,38.852a6.9,6.9,0,0,1-1.691-1.257c-10.208-10.4-20.469-20.741-30.692-31.127,7.26-.078,14.512-.008,21.772-.039Q278.283,91.908,333.8,17.015Z" transform="translate(-176.554 -6.04)" fill="#c4261b"/>
    </g>
  </g>
</svg>
